<svg xmlns="http://www.w3.org/2000/svg" viewBox="0 0 512 512" role="img" aria-label="StudySphere logo">
  <defs>
    <linearGradient id="brand-bg" x1="0%" y1="0%" x2="100%" y2="100%">
      <stop offset="0%" stop-color="#0f172a" />
      <stop offset="100%" stop-color="#020617" />
    </linearGradient>
    <linearGradient id="brand-accent" x1="0%" y1="0%" x2="100%" y2="100%">
      <stop offset="0%" stop-color="#38bdf8" />
      <stop offset="45%" stop-color="#0ea5e9" />
      <stop offset="100%" stop-color="#14b8a6" />
    </linearGradient>
    <filter id="brand-glow" x="-30%" y="-30%" width="160%" height="160%">
      <feDropShadow dx="0" dy="18" stdDeviation="20" flood-color="#0ea5e9" flood-opacity="0.33"/>
    </filter>
  </defs>

  <rect width="512" height="512" rx="128" fill="url(#brand-bg)" />

  <circle cx="256" cy="256" r="156" fill="none" stroke="url(#brand-accent)" stroke-opacity="0.25" stroke-width="18" />
  <ellipse cx="256" cy="256" rx="154" ry="96" fill="none" stroke="url(#brand-accent)" stroke-opacity="0.32" stroke-width="14" transform="rotate(-18 256 256)" />
  <ellipse cx="256" cy="256" rx="154" ry="96" fill="none" stroke="url(#brand-accent)" stroke-opacity="0.26" stroke-width="14" transform="rotate(22 256 256)" />

  <g filter="url(#brand-glow)">
    <circle cx="256" cy="256" r="90" fill="url(#brand-accent)" />
  </g>

  <path
    d="M256 174 154 226l102 53 102-53-102-52Zm-87 61v60c0 26 39 49 87 49s87-23 87-49v-60l-87 44-87-44Z"
    fill="#f8fafc"
  />
  <path d="M358 224v82" stroke="#f8fafc" stroke-width="11" stroke-linecap="round" />
  <circle cx="358" cy="322" r="10" fill="#f8fafc" />
</svg>
